HIERARCHY
ROOT Hips
{
	OFFSET 0.00000 0.00000 0.00000
	CHANNELS 6 Xposition Yposition Zposition Zrotation Yrotation Xrotation 
	JOINT LHipJoint
	{
		OFFSET 0 0 0
		CHANNELS 3 Zrotation Yrotation Xrotation
		JOINT LeftHip
		{
			OFFSET 1.64577 -1.42384 0.94276
			CHANNELS 3 Zrotation Yrotation Xrotation
			JOINT LeftKnee
			{
				OFFSET 2.11538 -5.81197 0.00000
				CHANNELS 3 Zrotation Yrotation Xrotation
				JOINT LeftAnkle
				{
					OFFSET 2.36541 -6.49893 0.00000
					CHANNELS 3 Zrotation Yrotation Xrotation
					JOINT LeftToe
					{
						OFFSET 0.17759 -0.48793 1.73865
						CHANNELS 3 Zrotation Yrotation Xrotation
						End Site
						{
							OFFSET 0.00000 -0.00000 0.91205
						}
					}
				}
			}
		}
	}
	JOINT RHipJoint
	{
		OFFSET 0 0 0
		CHANNELS 3 Zrotation Yrotation Xrotation
		JOINT RightHip
		{
			OFFSET -1.43750 -1.42384 0.94276
			CHANNELS 3 Zrotation Yrotation Xrotation
			JOINT RightKnee
			{
				OFFSET -2.10480 -5.78291 0.00000
				CHANNELS 3 Zrotation Yrotation Xrotation
				JOINT RightAnkle
				{
					OFFSET -2.34880 -6.45329 0.00000
					CHANNELS 3 Zrotation Yrotation Xrotation
					JOINT RightToe
					{
						OFFSET -0.22842 -0.62757 1.80469
						CHANNELS 3 Zrotation Yrotation Xrotation
						End Site
						{
							OFFSET -0.00000 -0.00000 0.95886
						}
					}
				}
			}
		}
	}
	JOINT lowerback
	{
		OFFSET 0 0 0
		CHANNELS 3 Zrotation Yrotation Xrotation
		JOINT Chest
		{
			OFFSET 0.06217 1.93758 -0.49272
			CHANNELS 3 Zrotation Yrotation Xrotation
			JOINT Chest2
			{
				OFFSET -0.03114 2.03621 -0.05830
				CHANNELS 3 Zrotation Yrotation Xrotation
				JOINT lowerneck
				{
					OFFSET 0 0 0
					CHANNELS 3 Zrotation Yrotation Xrotation
					JOINT Neck
					{
						OFFSET 0.04421 1.41010 0.26562
						CHANNELS 3 Zrotation Yrotation Xrotation
						JOINT Head
						{
							OFFSET -0.13407 1.43847 0.06181
							CHANNELS 3 Zrotation Yrotation Xrotation
							End Site
							{
								OFFSET -0.04980 1.45844 -0.00689
							}
						}
					}
				}
				JOINT LeftCollar
				{
					OFFSET 0 0 0
					CHANNELS 3 Zrotation Yrotation Xrotation
					JOINT LeftShoulder
					{
						OFFSET 2.18382 1.47753 -0.35694
CHANNELS 3 Zrotation Xrotation Yrotation
						JOINT LeftElbow
						{
OFFSET 0 -5.054600 0.000000
CHANNELS 3 Zrotation Xrotation Yrotation
							JOINT LeftWrist
							{
OFFSET 0 -3.390130 0.000000
CHANNELS 3 Zrotation Xrotation Yrotation
								JOINT lhand
								{
									OFFSET 0 0 0
CHANNELS 3 Zrotation Xrotation Yrotation
									JOINT LFingers
									{
OFFSET 0 -0.572420 -0.000000
CHANNELS 3 Zrotation Xrotation Yrotation
										End Site
										{
OFFSET 0 -0.461500 -0.000000
										}
									}
								}
								JOINT LThumb
								{
OFFSET 0 0.000000 0.000000
CHANNELS 3 Zrotation Xrotation Yrotation
									End Site
									{
OFFSET 0 -0.468550 0.468550
									}
								}
							}
						}
					}
				}
				JOINT RightCollar
				{
					OFFSET 0 0 0
					CHANNELS 3 Zrotation Yrotation Xrotation
					JOINT RightShoulder
					{
						OFFSET -2.06033 1.72839 -0.47437
CHANNELS 3 Zrotation Xrotation Yrotation
						JOINT RightElbow
						{
OFFSET 0 -5.070100 0.000000
CHANNELS 3 Zrotation Xrotation Yrotation
							JOINT RightWrist
							{
OFFSET 0 -3.149570 -0.000000
CHANNELS 3 Zrotation Xrotation Yrotation
								JOINT rhand
								{
									OFFSET 0 0 0
CHANNELS 3 Zrotation Xrotation Yrotation
									JOINT RFingers
									{
OFFSET 0 -0.718190 -0.000000
CHANNELS 3 Zrotation Xrotation Yrotation
										End Site
										{
OFFSET 0 -0.579020 -0.000000
										}
									}
								}
								JOINT RThumb
								{
OFFSET 0 0.000000 0.000000
CHANNELS 3 Zrotation Xrotation Yrotation
									End Site
									{
OFFSET 0 -0.587860 0.587860
									}
								}
							}
						}
					}
				}
			}
		}
	}
}
MOTION
Frames: 11
Frame Time: .0083333
-30.6383 15.2187 0.5362 -144.8540 83.1648 -139.9970 0.0000 0.0000 0.0000 -13.8710 -25.4881 -28.6653 2.8715 10.4841 30.5592 1.4673 1.4931 -23.4734 2.3542 -9.5678 -27.5880 0.0000 0.0000 0.0000 32.2446 -5.2758 16.7328 -4.4139 -12.6917 38.2249 2.3185 -26.1880 -15.4750 -0.0799 1.8230 -5.0169 2.1164 0.8510 10.7253 -0.9545 1.4746 4.0978 -2.3574 0.8232 -1.6652 3.2831 1.5013 -15.9153 -1.5717 1.5773 2.0068 -0.9882 0.7894 3.5435 0.0000 -0.0000 0.0000 -11.1587 49.945 -9.3144 109.0352 -58.5856 76.4066 35.8508 -14.1899 -14.166 0.0 0.0 0.0 -7.1250 0.0 0.0 8.0652 47.1141 -0.4234 0.0000 -0.0000 0.0000 -20.9638 15.0779 57.1005 -130.5144 -52.7859 -94.2361 -38.5527 -43.3942 -24.2666 0.0 0.0 0.0 7.1250 0.0 -0.0 -5.4931 0.1393 -5.5051
-29.8795 15.0839 0.5227 -152.1280 82.8996 -147.5840 0.0000 0.0000 0.0000 -15.4481 -24.7334 -26.7018 2.9169 10.5593 30.8077 1.5148 -0.9438 -22.9965 2.2132 -9.2967 -26.7279 0.0000 0.0000 0.0000 31.1272 -5.3082 12.5230 -6.6400 -15.0211 47.4994 2.1512 -25.8143 -17.5612 -0.0458 1.3805 -3.7964 1.5143 0.5011 10.8000 -1.2186 0.9473 4.0737 -2.2320 0.5578 -1.7660 3.3880 1.5986 -15.5896 -1.3821 1.6797 2.0393 -0.9357 0.8494 3.4933 0.0000 -0.0000 0.0000 -10.0677 47.3967 -10.6178 109.5079 -58.5121 76.8099 21.8239 -24.7044 0.5993 0.0 0.0 0.0 -7.1250 0.0 0.0 -3.7133 29.3251 -1.4215 0.0000 -0.0000 0.0000 -20.7404 16.7575 57.535 -128.0933 -53.7361 -92.2957 -38.332 -43.4142 -23.4456 0.0 0.0 0.0 7.1250 0.0 -0.0 -5.5342 1.1614 -5.4465
-29.1408 14.9021 0.5129 -162.9550 83.1308 -158.7200 0.0000 0.0000 0.0000 -17.5586 -24.3821 -25.6148 3.4758 11.4281 33.7375 1.1162 -0.9145 -19.6913 3.1604 -10.9503 -32.1124 0.0000 0.0000 0.0000 28.8224 -5.3579 8.4923 -9.1716 -16.9169 56.6816 1.8957 -24.3416 -16.4033 -0.2126 2.9683 -8.1904 0.0200 0.3526 11.2324 -1.6570 0.5865 3.9330 -1.8083 0.3708 -2.1763 3.8872 1.7084 -15.4133 -1.4663 1.7364 2.2733 -1.0510 0.8784 3.5532 0.0000 -0.0000 0.0000 -8.5866 44.5135 -12.4819 109.4749 -58.5173 76.7818 20.4311 -25.1869 1.755 0.0 0.0 0.0 -7.1250 0.0 0.0 -4.7528 28.096 -1.9606 0.0000 -0.0000 0.0000 -20.3473 18.6292 57.6741 -125.2115 -54.7532 -89.9568 -37.6966 -42.928 -22.2015 0.0 0.0 0.0 7.1250 0.0 -0.0 -5.4041 2.8009 -5.1569
-28.4238 14.7430 0.4989 -176.4340 83.3264 -172.3570 0.0000 0.0000 0.0000 -20.5478 -21.8608 -24.2672 4.0437 12.2184 36.5089 0.9730 -1.6549 -18.1600 1.0630 -6.5551 -18.4037 0.0000 0.0000 0.0000 25.9448 -4.9090 4.0365 -11.6983 -18.2602 65.0291 1.6211 -22.8732 -16.1687 -0.3263 3.6714 -10.1541 -1.8586 0.1666 11.9636 -2.0471 0.0946 3.5691 -1.0992 0.1255 -2.9690 4.0348 1.8925 -14.7877 -1.3985 1.9675 2.2676 -1.0382 0.9961 3.4381 0.0000 0.0000 0.0000 -7.5556 41.5288 -14.3798 110.2786 -58.3877 77.4667 21.0841 -23.6127 -0.547 0.0 0.0 0.0 -7.1250 0.0 0.0 -4.3449 30.5504 -1.5372 0.0000 0.0000 0.0000 -20.0668 20.2184 57.867 -120.4695 -56.1835 -86.0493 -37.017 -43.0536 -22.059 0.0 0.0 0.0 7.1250 0.0 -0.0 -5.0207 3.161 -4.7548
-27.7299 14.5555 0.4907 -201.7380 83.2241 -198.9200 0.0000 0.0000 0.0000 -24.9603 -20.4120 -21.9399 4.6491 12.9774 39.2841 0.9017 -2.7967 -17.2194 0.1026 -2.0654 -5.6864 0.0000 0.0000 0.0000 21.3974 -4.3160 0.7162 -14.2488 -19.1878 72.9629 1.1734 -20.4285 -16.4775 -0.0470 1.3984 -3.8458 -5.0300 0.2911 14.0872 -2.8746 -0.2491 3.5188 -0.1434 0.0079 -4.1594 3.7019 1.9720 -13.8440 -0.6694 2.1321 1.6193 -0.7269 1.1045 3.0149 0.0000 0.0000 0.0000 -5.782 38.0823 -17.0871 111.0022 -58.2659 78.0826 21.928 -23.0365 0.4105 0.0 0.0 0.0 -7.1250 0.0 0.0 -3.6385 29.5281 -1.3752 0.0000 0.0000 0.0000 -19.3742 22.0326 57.5334 -114.4609 -57.6138 -81.0141 -36.3204 -42.6641 -22.4006 0.0 0.0 0.0 7.1250 0.0 -0.0 -4.5340 2.9604 -4.3075
-27.0635 14.3869 0.5009 -219.0510 81.3807 -216.7810 0.0000 0.0000 0.0000 -28.9850 -19.4545 -19.6020 5.2391 13.6481 41.8456 1.2190 -3.5709 -19.9935 0.1735 -2.6830 -7.3974 0.0000 0.0000 0.0000 17.0471 -3.5427 -4.1729 -16.6638 -19.7310 80.2036 0.5929 -17.6609 -18.7242 -0.5595 4.7912 -13.3141 -8.1029 0.3699 15.6278 -3.6448 -0.7239 3.5311 0.8399 -0.1476 -4.9200 3.6956 1.9117 -13.7374 -0.4597 2.0612 1.0943 -0.6626 1.0779 2.8070 -0.0000 0.0000 0.0000 -2.9059 33.4458 -21.6383 112.6211 -57.9753 79.4573 24.2321 -21.8682 0.219 0.0 0.0 0.0 -7.1250 0.0 0.0 -1.8349 29.7372 -0.6834 -0.0000 0.0000 0.0000 -18.1964 24.1108 56.114 -107.4890 -58.8121 -75.0855 -37.1274 -40.1184 -21.1747 0.0 0.0 0.0 7.1250 0.0 -0.0 -5.2554 4.1606 -4.8812
-26.3763 14.2929 0.4992 -220.0840 80.5076 -217.6810 0.0000 0.0000 0.0000 -30.3466 -18.7195 -17.3007 5.5752 14.0036 43.2520 1.5894 -4.5150 -22.8028 0.1410 -2.4200 -6.6678 0.0000 0.0000 0.0000 15.4453 -2.3338 -9.6754 -18.6130 -19.9538 85.9416 0.2407 -16.3251 -20.6632 -0.4140 4.1302 -11.4433 -8.7303 0.3588 16.2578 -3.7681 -0.9206 3.3971 1.0950 -0.2118 -5.3795 3.4279 1.7358 -13.6737 -0.0687 1.8728 0.5748 -0.5011 0.9983 2.6018 -0.0000 0.0000 0.0000 0.2923 28.3043 -27.0269 115.4780 -57.3992 81.8719 24.7979 -20.8654 -0.2797 0.0 0.0 0.0 -7.1250 0.0 0.0 -1.3977 30.2863 -0.5022 -0.0000 0.0000 0.0000 -16.8682 26.7343 53.6831 -100.1320 -59.6085 -68.763 -39.1563 -37.7716 -21.1257 0.0 0.0 0.0 7.1250 0.0 -0.0 -6.4995 3.6401 -6.1139
-25.6805 14.2381 0.4783 -214.1340 80.6574 -210.6840 0.0000 0.0000 0.0000 -29.8830 -18.8495 -15.1139 5.6321 14.0621 43.4866 1.9865 -4.9088 -25.5578 0.1008 -2.0471 -5.6358 0.0000 0.0000 0.0000 15.8362 -0.1489 -16.2926 -20.0147 -20.0000 90.0430 0.1529 -16.5599 -21.9744 -0.5020 4.5423 -12.6077 -7.9326 0.1578 15.4101 -3.1278 -0.9944 3.1296 1.3460 -0.2806 -5.2080 2.7732 1.6009 -13.1317 -0.1865 1.8406 -0.3292 -0.4316 0.9719 2.1861 0.0000 -0.0000 0.0000 2.0877 22.9436 -31.7595 119.4698 -56.4496 85.2173 23.8017 -19.6928 -0.2186 0.0 0.0 0.0 -7.1250 0.0 0.0 -2.1838 30.215 -0.7886 0.0000 -0.0000 0.0000 -16.462 29.3361 52.0245 -94.9452 -59.9074 -64.2813 -40.5681 -37.3745 -19.5554 0.0 0.0 0.0 7.1250 0.0 -0.0 -7.6738 5.1092 -7.0245
-24.9783 14.2206 0.4730 -212.1140 80.7915 -207.9680 0.0000 0.0000 0.0000 -29.9479 -17.9444 -12.1029 5.3924 13.8125 42.4915 2.3013 -5.4352 -27.5270 0.0865 -1.8973 -5.2220 0.0000 0.0000 0.0000 15.6789 2.4555 -22.1267 -20.8967 -19.9807 92.6227 -0.1495 -16.1946 -24.3554 -0.3059 3.5557 -9.8299 -7.6601 -0.0293 14.6772 -2.8197 -1.1378 3.0126 1.5439 -0.3720 -4.9225 2.9988 1.7123 -13.2624 -0.8507 1.9776 -0.4480 -0.6764 1.0182 2.1854 0.0000 -0.0000 0.0000 3.7803 17.7862 -35.5683 124.3026 -55.0499 89.2131 21.7005 -18.5355 0.0645 0.0 0.0 0.0 -7.1250 0.0 0.0 -3.8305 29.8995 -1.4141 0.0000 -0.0000 0.0000 -16.3509 31.5626 51.506 -92.2246 -59.9813 -61.9264 -39.824 -42.6121 -18.2994 0.0 0.0 0.0 7.1250 0.0 -0.0 -7.4621 6.8472 -6.5767
-24.2650 14.2554 0.4807 -210.7240 80.3340 -205.8500 0.0000 0.0000 0.0000 -30.2179 -16.8600 -8.5867 4.9002 13.2705 40.3896 2.4419 -6.4875 -28.2724 0.0406 -1.3010 -3.5774 0.0000 0.0000 0.0000 15.1091 4.8474 -27.5853 -21.0890 -19.9715 93.1855 -0.2184 -16.1544 -24.9068 -0.4513 4.3098 -11.9499 -7.7834 -0.3965 13.9786 -2.5926 -1.5946 2.7848 1.9271 -0.6052 -4.7357 2.9993 1.9825 -13.7275 -0.9019 2.3045 0.4432 -0.6690 1.1766 2.5824 0.0000 0.0000 0.0000 4.8347 13.4695 -38.3807 127.8642 -53.8214 92.1109 21.5132 -16.6857 1.9439 0.0 0.0 0.0 -7.1250 0.0 0.0 -3.9113 27.8835 -1.6315 0.0000 0.0000 0.0000 -16.8598 33.7415 52.1592 -90.5644 -59.9988 -60.4888 -39.6092 -47.8926 -16.3574 0.0 0.0 0.0 7.1250 0.0 -0.0 -7.6906 9.2744 -6.4102
-23.5211 14.3286 0.4817 -209.4360 79.6765 -204.2680 0.0000 0.0000 0.0000 -30.8160 -15.9412 -3.8931 4.2416 12.4752 37.4343 2.3343 -5.6519 -27.7055 0.1276 -2.3023 -6.3420 0.0000 0.0000 0.0000 14.3068 6.7464 -31.6924 -20.6234 -19.9907 91.8229 -0.1276 -16.5451 -24.6225 -0.6052 4.9795 -13.8502 -7.9852 -0.8829 13.3223 -2.3196 -2.2004 2.7320 2.4150 -0.9183 -4.3583 3.7128 2.3667 -13.6602 -2.0303 2.7434 0.8710 -1.1369 1.3519 2.7658 -0.0000 -0.0000 0.0000 5.3356 10.168 -40.4688 132.9770 -51.7219 96.1835 20.9901 -14.4076 2.5189 0.0 0.0 0.0 -7.1250 0.0 0.0 -4.2971 27.2753 -1.855 -0.0000 -0.0000 0.0000 -17.818 35.8352 53.0485 -89.0875 -59.9969 -59.2097 -41.2142 -51.1909 -15.4989 0.0 0.0 0.0 7.1250 0.0 -0.0 -8.8695 9.9351 -7.2965
